<?xml version="1.0" standalone="no"?>
<!DOCTYPE svg PUBLIC "-//W3C//DTD SVG 20010904//EN"
 "http://www.w3.org/TR/2001/REC-SVG-20010904/DTD/svg10.dtd">
<svg version="1.0" xmlns="http://www.w3.org/2000/svg"
 width="1073.000000pt" height="901.000000pt" viewBox="0 0 1073.000000 901.000000"
 preserveAspectRatio="xMidYMid meet">

<g transform="translate(0.000000,901.000000) scale(0.100000,-0.100000)"
fill="#000000" stroke="none">
<path d="M5100 8360 c-30 -4 -108 -13 -173 -20 -842 -84 -1656 -466 -2265
-1064 -644 -631 -1041 -1447 -1132 -2326 -6 -58 -15 -141 -20 -185 -13 -103
-13 -347 0 -450 5 -44 14 -127 20 -185 91 -875 488 -1695 1122 -2315 308 -302
644 -538 1033 -726 377 -181 729 -282 1225 -351 129 -18 711 -18 840 0 382 53
599 105 900 214 681 248 1298 708 1742 1300 364 484 611 1063 707 1653 43 261
46 306 46 635 0 329 -3 374 -46 635 -84 514 -282 1020 -572 1460 -325 492
-732 883 -1237 1185 -478 287 -1004 463 -1550 520 -58 6 -141 15 -185 20 -92
12 -374 11 -455 0z m561 -95 c803 -75 1528 -386 2130 -913 1154 -1011 1574
-2607 1067 -4052 -448 -1275 -1583 -2232 -2908 -2449 -1289 -211 -2573 248
-3432 1228 -600 684 -928 1554 -928 2461 0 1078 464 2098 1279 2812 770 675
1784 1006 2792 913z"/>
<path d="M5241 7283 c15 -76 28 -144 29 -150 0 -10 -27 -13 -105 -13 l-104 0
-31 45 c-22 33 -38 45 -55 45 -31 0 -31 -11 1 -87 l27 -62 -27 -66 c-32 -80
-32 -85 -1 -85 17 0 33 12 55 45 l31 45 104 0 c78 0 105 -3 105 -12 -1 -7 -14
-75 -29 -150 l-28 -138 43 0 44 0 37 71 c21 39 60 106 86 149 l48 79 101 3
c97 3 102 4 121 31 l21 27 -21 28 c-19 26 -25 27 -118 32 l-99 5 -89 148 -88
147 -43 0 -43 0 28 -137z"/>
<path d="M4745 6996 c-49 -15 -71 -27 -73 -40 -7 -37 14 -39 98 -11 71 23 81
30 78 48 -4 29 -20 29 -103 3z"/>
<path d="M5816 7004 c-3 -9 -6 -19 -6 -24 0 -10 167 -67 173 -59 3 2 7 14 11
26 6 19 -1 24 -71 47 -91 30 -99 31 -107 10z"/>
<path d="M4408 6829 c-43 -21 -78 -43 -78 -47 0 -5 6 -16 13 -26 12 -17 18
-16 98 24 46 23 85 44 87 45 7 7 -19 45 -31 45 -7 -1 -47 -19 -89 -41z"/>
<path d="M6143 6847 c-10 -22 -7 -26 75 -66 81 -40 87 -42 99 -25 7 10 13 21
13 26 0 8 -153 88 -168 88 -5 0 -14 -10 -19 -23z"/>
<path d="M4121 6586 c-64 -64 -73 -77 -61 -90 7 -9 18 -16 24 -16 6 0 43 31
81 70 69 70 69 70 49 90 -20 20 -20 20 -93 -54z"/>
<path d="M6445 6640 c-19 -21 -18 -21 50 -90 38 -39 75 -70 81 -70 6 0 17 7
25 16 11 13 2 26 -62 90 l-75 75 -19 -21z"/>
<path d="M5207 6639 c-383 -42 -728 -318 -851 -680 -160 -474 40 -986 479
-1224 293 -159 634 -164 947 -16 142 68 301 208 395 349 370 554 107 1313
-529 1525 -134 45 -298 62 -441 46z m228 -60 c50 -6 94 -15 99 -20 6 -5 -11
-30 -40 -61 l-49 -52 42 -8 c54 -9 100 -33 114 -60 12 -23 8 -79 -12 -170 -17
-74 -8 -85 52 -64 58 21 59 20 59 -12 0 -23 -15 -41 -84 -99 -107 -91 -131
-136 -123 -231 7 -89 36 -117 128 -126 167 -17 190 -38 250 -229 43 -137 61
-180 87 -210 14 -16 16 -14 34 25 10 23 33 62 51 87 18 25 55 89 83 141 48 92
127 190 154 190 22 0 7 -198 -24 -303 -51 -172 -113 -282 -231 -406 -370 -390
-1003 -401 -1381 -22 -121 120 -206 265 -254 431 -31 106 -38 306 -16 414 9
44 18 81 20 83 11 11 85 -78 101 -122 11 -27 38 -73 62 -101 57 -68 100 -163
114 -254 l12 -75 107 -110 c125 -129 166 -201 183 -318 10 -73 12 -75 44 -85
37 -11 35 -14 48 73 12 78 82 199 171 298 93 102 134 172 134 228 0 30 -4 38
-22 43 -13 3 -61 31 -108 61 -198 130 -253 139 -433 69 -47 -18 -49 -18 -62
-1 -7 10 -16 41 -20 69 -6 41 -14 56 -46 85 -40 36 -65 96 -53 127 7 19 13 20
38 1 30 -23 38 -19 76 37 42 63 130 133 280 226 63 39 128 84 144 101 27 28
28 35 23 84 -3 36 -21 84 -51 145 -25 50 -46 94 -46 96 0 6 93 24 145 29 81 7
112 7 200 -4z"/>
<path d="M4350 3880 l0 -320 185 0 185 0 0 30 0 30 -150 0 -150 0 0 115 0 114
138 3 137 3 3 33 3 32 -140 0 -141 0 0 110 0 110 150 0 150 0 0 30 0 30 -185
0 -185 0 0 -320z"/>
<path d="M4967 4016 c-57 -16 -70 -26 -61 -50 5 -14 14 -16 38 -11 17 3 60 8
96 11 56 5 69 3 93 -16 23 -18 27 -29 27 -74 l0 -52 -92 0 c-124 1 -181 -30
-197 -106 -31 -144 144 -222 259 -117 17 16 33 29 35 29 2 0 5 -15 7 -32 3
-33 4 -33 61 -36 l57 -3 0 31 c0 27 -3 30 -30 30 -34 0 -32 -11 -30 186 1 128
-15 176 -71 204 -44 23 -120 25 -192 6z m191 -287 c7 -87 -122 -153 -192 -98
-20 16 -26 29 -26 60 0 34 5 42 33 59 26 17 46 20 107 18 l75 -3 3 -36z"/>
<path d="M5540 4017 c-70 -24 -100 -60 -100 -120 0 -58 39 -89 142 -116 109
-28 147 -46 157 -73 32 -88 -118 -128 -240 -64 l-49 25 -15 -29 c-15 -28 -15
-28 28 -49 165 -79 347 -26 347 103 0 73 -37 104 -157 131 -138 31 -172 61
-129 112 32 37 129 44 198 14 l48 -20 15 22 c14 20 14 23 -2 35 -51 37 -174
52 -243 29z"/>
<path d="M5940 4013 c0 -5 42 -107 93 -228 89 -210 95 -220 123 -225 29 -5 30
-7 22 -36 -4 -17 -20 -43 -35 -58 -23 -24 -33 -27 -64 -22 -21 3 -44 9 -53 12
-10 4 -17 -2 -22 -20 -8 -33 0 -43 44 -55 50 -14 100 1 141 43 29 30 44 68
117 306 46 150 84 276 84 281 0 5 -15 9 -32 9 l-33 0 -56 -193 c-75 -257 -71
-257 -175 -3 l-79 196 -37 0 c-21 0 -38 -3 -38 -7z"/>
<path d="M5602 3014 c-29 -20 -31 -79 -3 -94 29 -15 56 -12 74 8 23 25 21 58
-3 82 -24 24 -38 25 -68 4z"/>
<path d="M4290 2935 l0 -85 30 0 c30 0 30 1 30 55 l0 55 65 0 65 0 0 -259 0
-260 -47 -3 c-44 -3 -48 -5 -51 -30 l-3 -28 140 0 141 0 0 30 c0 29 -1 30 -50
30 l-50 0 0 260 0 260 65 0 65 0 0 -55 0 -55 35 0 36 0 -3 83 -3 82 -232 3
-233 2 0 -85z"/>
<path d="M5137 2836 c-21 -8 -46 -21 -55 -29 -28 -25 -45 -24 -52 3 -6 24 -10
25 -88 28 l-82 3 0 -31 0 -30 60 0 60 0 0 -170 0 -170 -60 0 -60 0 0 -30 0
-30 180 0 180 0 0 30 0 30 -85 0 -85 0 0 145 0 145 47 30 c84 54 143 32 143
-52 0 -36 2 -38 30 -38 29 0 30 2 30 45 0 114 -59 158 -163 121z"/>
<path d="M6125 2832 c-22 -11 -49 -29 -59 -41 -22 -24 -36 -14 -36 27 0 20 -4
22 -60 22 l-60 0 0 -30 c0 -26 3 -30 29 -30 17 0 31 -6 35 -16 3 -9 6 -139 6
-290 l0 -274 35 0 35 0 0 95 0 95 28 -7 c15 -5 56 -8 92 -8 157 1 246 124 220
305 -15 107 -67 157 -173 166 -38 4 -63 0 -92 -14z m134 -67 c41 -21 61 -71
61 -152 0 -82 -27 -136 -80 -164 -39 -21 -111 -25 -159 -8 l-31 11 0 121 c0
112 2 124 23 149 45 55 127 74 186 43z"/>
<path d="M5440 2810 l0 -30 80 0 80 0 0 -170 0 -170 -80 0 -80 0 0 -30 0 -30
190 0 190 0 0 30 0 30 -75 0 -75 0 0 200 0 200 -115 0 -115 0 0 -30z"/>
</g>
</svg>
